<svg width="1157" height="180" viewBox="0 0 1157 180" fill="none" xmlns="http://www.w3.org/2000/svg">
<path d="M190.946 50.2522C104.735 -37.5636 31.7173 8.77997 2.96201 46.2082C1.96701 47.5033 1.46951 48.1509 1.03312 49.0349C0.673522 49.7633 0.351122 50.7121 0.192497 51.5089C0 52.4757 0 53.4092 0 55.2763V164C0 169.601 0 172.401 1.08993 174.54C2.04867 176.422 3.57847 177.951 5.46009 178.91C7.59921 180 10.3995 180 16 180H1141C1146.6 180 1149.4 180 1151.54 178.91C1153.42 177.951 1154.95 176.422 1155.91 174.54C1157 172.401 1157 169.601 1157 164V125.226C1157 102.35 1157 90.9114 1154.31 88.0288C1151.77 85.3107 1148.84 84.3469 1145.18 85.0236C1141.3 85.7413 1134.07 95.5252 1119.62 115.093C1084.1 163.172 1036.09 194.485 996.42 123.588C939.599 22.0461 878.044 111.042 838.928 123.588C771.505 145.213 738.051 127.349 707.17 89.7406C668.569 42.7305 620.704 22.0462 573.353 15.4647C536.161 10.2953 472.111 60.8965 443.165 88.2468C442.556 88.8223 442.252 89.11 441.921 89.3734C441.636 89.6003 441.311 89.8307 441.002 90.0242C440.644 90.2487 440.325 90.413 439.687 90.7417C392.182 115.199 279.091 140.038 190.946 50.2522Z" fill="#83E9FF" fill-opacity="0.1"/>
</svg>
