<svg width="1158" height="149" viewBox="0 0 1158 149" fill="none" xmlns="http://www.w3.org/2000/svg">
<path d="M101.342 86.1827C72.202 97.9465 42.5329 77.5378 21.6623 54.9143C14.7925 47.4675 0 52.1171 0 62.2486V139C0 144.523 4.47715 149 10 149H1144.89C1150.41 149 1154.89 144.524 1154.97 139.001C1155.71 87.0428 1161.45 4.38233 1154.89 26.2872C1148.1 48.9897 1108.4 74.4486 1088.68 85.2623C1087.56 85.8769 1086.35 86.262 1085.08 86.3682C1047.68 89.4862 987.074 65.2323 956.836 43.0871C907.965 7.29591 804.565 -21.9214 769.07 43.0871C728.472 117.441 679.325 117.836 646.731 99.2523C645.98 98.8239 645.284 98.2743 644.68 97.6547C616.835 69.07 618.321 54.8186 588.505 43.0871C545.808 26.2872 519.058 69.3828 491.793 98.6001C464.528 127.817 349.399 169.306 321.003 69.3828C292.775 -29.9493 221.2 -1.3276 188.349 25.8029C187.953 26.1298 187.61 26.4671 187.268 26.8502C175.501 40.0467 142.72 69.4786 101.342 86.1827Z" fill="#83E9FF" fill-opacity="0.2"/>
</svg>
