<svg width="365" height="107" viewBox="0 0 365 107" fill="none" xmlns="http://www.w3.org/2000/svg">
<path d="M3.65796 14.5759L5.96468 8.80077C6.97052 6.28254 10.6014 6.48832 11.3162 9.10408L11.493 9.75094C12.0353 11.7352 14.612 12.2455 15.8696 10.6177V10.6177C16.903 9.28011 18.9398 9.33718 19.8966 10.7305L20.6162 11.7784C21.6742 13.319 23.7858 13.7006 25.3161 12.6277V12.6277C26.6784 11.6726 28.5345 11.8579 29.681 13.0637L30.7599 14.1983C30.9986 14.4494 31.262 14.6759 31.546 14.8744L35.5542 17.676C37.1496 18.7912 39.2998 18.6749 40.7656 17.3942V17.3942C42.541 15.843 45.2414 16.0407 46.7719 17.8339L47.4194 18.5926C49.7792 21.3574 54.1718 20.9241 55.9459 17.7515L57.1276 15.6384C57.5206 14.9355 58.0336 14.3068 58.6433 13.7806L59.7532 12.8229C60.3657 12.2944 60.6719 12.0301 60.9621 11.8218C63.6668 9.87982 67.2914 9.81614 70.0627 11.6619C70.36 11.8599 70.6753 12.1132 71.3059 12.6199V12.6199C71.5798 12.8399 71.7167 12.9499 71.8455 13.0628C73.0178 14.0902 73.8645 15.4378 74.2813 16.9399C74.3271 17.1049 74.3668 17.276 74.4462 17.6182L80.7797 44.9247C82.0494 50.399 88.5106 52.782 93.0308 49.4432V49.4432C95.2575 47.7985 98.1883 47.455 100.735 48.5404L103.456 49.6999C104.971 50.3456 105.728 50.6685 106.502 50.8301C107.71 51.0824 108.96 51.0517 110.154 50.7406C110.919 50.5413 111.66 50.1817 113.142 49.4625L115.984 48.0829C117.654 47.2723 119.616 47.3325 121.233 48.244V48.244C124.431 50.0467 128.472 48.3734 129.46 44.8378L134.301 27.5074C135.361 23.7111 140.118 22.4627 142.906 25.249V25.249C144.858 27.1999 148.001 27.2662 150.034 25.3995L151.678 23.8892C154.153 21.6168 158.149 22.6778 159.171 25.8784V25.8784C160.505 30.0595 166.38 30.1741 167.876 26.0481L168.392 24.6281C169.418 21.7984 172.849 20.7128 175.316 22.4373V22.4373C176.707 23.4094 178.521 23.5323 180.031 22.7567L186.139 19.6172C186.316 19.5261 186.405 19.4805 186.492 19.433C187.021 19.1442 187.516 18.7965 187.967 18.3965C188.042 18.3307 188.114 18.2628 188.26 18.1269V18.1269C189.148 17.2999 189.591 16.8864 190.021 16.5806C192.706 14.6694 196.289 14.6008 199.046 16.408C199.487 16.6972 199.946 17.0934 200.864 17.8859L201.272 18.2374C201.456 18.396 201.548 18.4753 201.642 18.5516C202.008 18.8487 202.399 19.1128 202.812 19.3409C202.918 19.3995 203.026 19.455 203.242 19.566L209.773 22.9227C211.053 23.5805 212.607 23.3703 213.666 22.3962V22.3962C215.438 20.7672 218.292 21.4189 219.181 23.6554L223.355 34.1616C223.836 35.372 224.076 35.9773 224.397 36.5186C225.037 37.5973 225.921 38.5105 226.978 39.1845C227.509 39.5228 228.106 39.7827 229.301 40.3024L231.306 41.1751C232.073 41.5088 232.456 41.6757 232.818 41.8802C233.14 42.0618 233.448 42.2655 233.742 42.4897C234.072 42.7422 234.376 43.0292 234.984 43.6032L242.764 50.9458C243.098 51.261 243.265 51.4186 243.44 51.5661C243.596 51.6972 243.757 51.8223 243.922 51.9411C244.108 52.0748 244.302 52.1979 244.69 52.444L246.273 53.4487C248.047 54.5752 248.935 55.1384 249.897 55.4509C250.751 55.7278 251.644 55.8593 252.541 55.8398C253.553 55.8178 254.565 55.534 256.589 54.9665L260.235 53.9438C260.725 53.8064 260.97 53.7377 261.21 53.686C262.978 53.3054 264.822 53.5347 266.442 54.3365C266.662 54.4453 266.883 54.572 267.325 54.8252L268.087 55.2629C269.489 56.0668 270.56 57.3413 271.111 58.8602V58.8602C273.274 64.8239 281.689 64.8776 283.928 58.942L284.847 56.5079L286.569 52.3271C288.539 47.5472 295.388 47.7855 297.021 52.6908V52.6908C297.779 54.9701 299.912 56.5079 302.314 56.5079H308.914C310.826 56.5079 312.581 57.5644 313.476 59.2538V59.2538C315.219 62.5432 319.764 62.9632 322.08 60.0489L324.894 56.5079L326.488 54.5631C329.053 51.4351 330.335 49.8711 331.73 49.1213C334.297 47.7424 337.409 47.8673 339.857 49.4475C341.187 50.3067 342.34 51.9684 344.646 55.2919L344.941 55.7172C345.305 56.2421 345.6 56.812 345.818 57.4127V57.4127C348.161 63.8736 357.278 63.9318 359.703 57.5013L360.078 56.5079" stroke="#83E9FF" stroke-width="2" stroke-linecap="round"/>
<path opacity="0.02" d="M5.96469 8.80077L3.98708 13.7519C3.76966 14.2963 3.65796 14.8771 3.65796 15.4632V92.5823C3.65796 97.0628 3.65796 99.303 4.52991 101.014C5.29689 102.52 6.52074 103.743 8.02603 104.51C9.73733 105.382 11.9775 105.382 16.458 105.382H352.541C356.703 105.382 360.078 102.008 360.078 97.8451V70.6233C360.078 67.7608 356.107 67.0366 355.096 69.7149C354.253 71.9506 351.083 71.9304 350.269 69.6841L345.818 57.4127C345.6 56.812 345.305 56.2421 344.941 55.7172L344.646 55.2919C342.34 51.9684 341.187 50.3067 339.857 49.4475C337.409 47.8673 334.297 47.7424 331.73 49.1213C330.335 49.8711 329.053 51.4351 326.488 54.5631L324.894 56.5079L322.08 60.0489C319.764 62.9632 315.219 62.5432 313.476 59.2538C312.581 57.5644 310.826 56.5079 308.914 56.5079H302.314C299.912 56.5079 297.779 54.9701 297.021 52.6908C295.388 47.7855 288.539 47.5472 286.569 52.3271L284.847 56.5079L283.928 58.942C281.689 64.8776 273.274 64.8239 271.111 58.8602C270.56 57.3413 269.489 56.0668 268.087 55.2629L267.325 54.8252L267.324 54.8248C266.883 54.5718 266.662 54.4453 266.442 54.3365C264.822 53.5347 262.978 53.3054 261.21 53.686C260.97 53.7377 260.725 53.8064 260.235 53.9438L256.589 54.9665C254.565 55.534 253.553 55.8178 252.541 55.8398C251.644 55.8593 250.751 55.7278 249.897 55.4509C248.935 55.1384 248.048 54.5752 246.273 53.4488L246.273 53.4487L244.69 52.444C244.302 52.1979 244.108 52.0748 243.922 51.9411C243.757 51.8223 243.596 51.6972 243.44 51.5661C243.265 51.4186 243.098 51.261 242.764 50.9458L234.984 43.6032L234.984 43.6031C234.376 43.0291 234.072 42.7421 233.742 42.4897C233.448 42.2655 233.14 42.0618 232.818 41.8802C232.456 41.6757 232.073 41.5089 231.306 41.1751L229.301 40.3024C228.106 39.7827 227.509 39.5228 226.978 39.1845C225.921 38.5105 225.037 37.5973 224.397 36.5186C224.076 35.9773 223.836 35.3721 223.355 34.1616L219.181 23.6555C218.292 21.4189 215.438 20.7672 213.666 22.3962C212.607 23.3703 211.053 23.5805 209.773 22.9228L203.242 19.566C203.026 19.455 202.918 19.3995 202.812 19.3409C202.399 19.1128 202.008 18.8487 201.642 18.5516C201.548 18.4754 201.456 18.3962 201.272 18.2379L201.272 18.2374L200.865 17.8859L200.864 17.8857C199.946 17.0934 199.487 16.6971 199.046 16.408C196.289 14.6008 192.706 14.6694 190.021 16.5806C189.591 16.8864 189.148 17.2999 188.26 18.1267L188.26 18.1269L188.258 18.1286C188.114 18.2634 188.041 18.331 187.967 18.3965C187.516 18.7965 187.021 19.1442 186.492 19.433C186.405 19.4804 186.317 19.5259 186.14 19.6166L186.139 19.6172L180.031 22.7567C178.521 23.5323 176.707 23.4094 175.316 22.4373C172.849 20.7128 169.418 21.7984 168.392 24.6281L167.876 26.0481C166.38 30.1741 160.505 30.0595 159.171 25.8784C158.149 22.6778 154.153 21.6168 151.678 23.8892L150.034 25.3995C148.001 27.2662 144.858 27.1999 142.906 25.249C140.118 22.4627 135.361 23.7111 134.301 27.5074L129.46 44.8378C128.472 48.3734 124.431 50.0467 121.233 48.244C119.616 47.3325 117.654 47.2723 115.984 48.0829L113.142 49.4625C111.66 50.1817 110.919 50.5413 110.154 50.7406C108.96 51.0517 107.71 51.0824 106.502 50.8301C105.728 50.6685 104.971 50.3456 103.456 49.6999L100.735 48.5404C98.1883 47.455 95.2575 47.7985 93.0308 49.4432C88.5106 52.782 82.0494 50.399 80.7797 44.9247L74.4462 17.6182C74.3668 17.276 74.3271 17.1049 74.2813 16.9399C73.8645 15.4378 73.0178 14.0902 71.8455 13.0628C71.7167 12.9499 71.5798 12.8399 71.3059 12.6199C70.6753 12.1133 70.36 11.8599 70.0627 11.6619C67.2914 9.81614 63.6668 9.87982 60.9621 11.8218C60.6719 12.0301 60.3657 12.2944 59.7532 12.8229L58.6433 13.7806C58.0336 14.3068 57.5206 14.9355 57.1276 15.6384L55.9459 17.7515C54.1718 20.9241 49.7792 21.3574 47.4194 18.5926L46.7719 17.8339C45.2414 16.0407 42.541 15.843 40.7656 17.3942C39.2998 18.6749 37.1496 18.7912 35.5542 17.676L31.546 14.8744C31.262 14.6759 30.9986 14.4494 30.7599 14.1983L29.681 13.0637C28.5345 11.8579 26.6784 11.6726 25.3161 12.6277C23.7858 13.7006 21.6742 13.319 20.6162 11.7784L19.8966 10.7305C18.9398 9.33719 16.903 9.28011 15.8696 10.6177C14.612 12.2455 12.0353 11.7352 11.493 9.75094L11.3162 9.10408C10.6014 6.48832 6.97052 6.28254 5.96469 8.80077Z" fill="#83E9FF" stroke="#83E9FF" stroke-width="2" stroke-linecap="round"/>
<line x1="-4.57942e-08" y1="105.515" x2="359.499" y2="105.515" stroke="#31353F"/>
<g opacity="0.1">
<g clip-path="url(#clip0_52_381)">
<rect x="3.57202" y="90" width="8" height="16" fill="#83E9FF"/>
<rect x="16.572" y="84" width="8" height="22" fill="#83E9FF"/>
<rect x="29.572" y="74" width="8" height="32" fill="#83E9FF"/>
<rect x="42.572" y="89" width="8" height="17" fill="#83E9FF"/>
<rect x="55.572" y="96" width="8" height="10" fill="#83E9FF"/>
<rect x="68.572" y="93" width="8" height="13" fill="#83E9FF"/>
<rect x="81.572" y="82" width="8" height="24" fill="#83E9FF"/>
<rect x="94.572" y="92" width="8" height="14" fill="#83E9FF"/>
<rect x="107.572" y="98" width="8" height="8" fill="#83E9FF"/>
<rect x="120.572" y="90" width="8" height="16" fill="#83E9FF"/>
<rect x="133.572" y="84" width="8" height="22" fill="#83E9FF"/>
<rect x="146.572" y="74" width="8" height="32" fill="#83E9FF"/>
<rect x="159.572" y="89" width="8" height="17" fill="#83E9FF"/>
<rect x="172.572" y="96" width="8" height="10" fill="#83E9FF"/>
<rect x="185.572" y="92" width="8" height="14" fill="#83E9FF"/>
<rect x="198.572" y="98" width="8" height="8" fill="#83E9FF"/>
<rect x="211.572" y="74" width="8" height="32" fill="#83E9FF"/>
<rect x="224.572" y="89" width="8" height="17" fill="#83E9FF"/>
<rect x="237.572" y="96" width="8" height="10" fill="#83E9FF"/>
<rect x="250.572" y="93" width="8" height="13" fill="#83E9FF"/>
<rect x="263.572" y="82" width="8" height="24" fill="#83E9FF"/>
<rect x="276.572" y="90" width="8" height="16" fill="#83E9FF"/>
<rect x="289.572" y="92" width="8" height="14" fill="#83E9FF"/>
<rect x="302.572" y="98" width="8" height="8" fill="#83E9FF"/>
<rect x="315.572" y="74" width="8" height="32" fill="#83E9FF"/>
<rect x="328.572" y="89" width="8" height="17" fill="#83E9FF"/>
<rect x="341.572" y="96" width="8" height="10" fill="#83E9FF"/>
<rect x="354.572" y="92" width="8" height="14" fill="#83E9FF"/>
</g>
</g>
<defs>
<clipPath id="clip0_52_381">
<rect x="3.57202" y="49" width="361.428" height="57" rx="8" fill="white"/>
</clipPath>
</defs>
</svg>
