<svg width="16" height="16" viewBox="0 0 16 16" fill="none" xmlns="http://www.w3.org/2000/svg">
<path d="M5.33325 12.6188C6.14402 13.0869 7.06372 13.3333 7.99992 13.3333C8.93611 13.3333 9.85582 13.0869 10.6666 12.6188C11.4774 12.1507 12.1506 11.4774 12.6187 10.6666C13.0868 9.85586 13.3333 8.93615 13.3333 7.99996C13.3333 7.06376 13.0868 6.14406 12.6187 5.33329C12.1506 4.52252 11.4774 3.84926 10.6666 3.38116C9.85582 2.91306 8.93611 2.66663 7.99992 2.66663C7.06372 2.66663 6.14402 2.91306 5.33325 3.38116" stroke="#83E9FF" stroke-opacity="0.8" stroke-width="2"/>
<path d="M1.33325 7.99996L0.552383 7.37526L0.0526271 7.99996L0.552383 8.62465L1.33325 7.99996ZM7.33325 8.99996C7.88554 8.99996 8.33325 8.55224 8.33325 7.99996C8.33325 7.44767 7.88554 6.99996 7.33325 6.99996V8.99996ZM3.21905 4.04193L0.552383 7.37526L2.11412 8.62465L4.78079 5.29132L3.21905 4.04193ZM0.552383 8.62465L3.21905 11.958L4.78079 10.7086L2.11412 7.37526L0.552383 8.62465ZM1.33325 8.99996H7.33325V6.99996H1.33325V8.99996Z" fill="#83E9FF" fill-opacity="0.8"/>
</svg>
