<svg width="14" height="14" viewBox="0 0 14 14" fill="none" xmlns="http://www.w3.org/2000/svg">
<path fill-rule="evenodd" clip-rule="evenodd" d="M3.79175 2.33333C2.342 2.33333 1.16675 3.50858 1.16675 4.95833V5.39583C1.16675 5.63745 1.36262 5.83333 1.60425 5.83333H1.75008C2.39441 5.83333 2.91675 6.35566 2.91675 6.99999C2.91675 7.64433 2.39441 8.16666 1.75008 8.16666H1.60425C1.36262 8.16666 1.16675 8.36254 1.16675 8.60416V9.04166C1.16675 10.4914 2.342 11.6667 3.79175 11.6667H10.2084C11.6582 11.6667 12.8334 10.4914 12.8334 9.04166V8.60416C12.8334 8.36254 12.6375 8.16666 12.3959 8.16666H12.2501C11.6057 8.16666 11.0834 7.64433 11.0834 6.99999C11.0834 6.35566 11.6057 5.83333 12.2501 5.83333H12.3959C12.6375 5.83333 12.8334 5.63745 12.8334 5.39583V4.95833C12.8334 3.50858 11.6582 2.33333 10.2084 2.33333H3.79175ZM6.96831 5.8368C6.88864 5.85438 6.8396 5.98125 6.74153 6.23498C6.68575 6.37928 6.65787 6.45142 6.60569 6.50049C6.59105 6.51426 6.57516 6.52652 6.55825 6.5371C6.49793 6.57482 6.42265 6.58182 6.27207 6.59581C6.01717 6.6195 5.88972 6.63135 5.8508 6.70676C5.84274 6.72238 5.83726 6.73929 5.83459 6.75679C5.82169 6.84128 5.91538 6.92975 6.10277 7.10667L6.15481 7.1558C6.24241 7.23852 6.28622 7.27987 6.31155 7.33149C6.32675 7.36245 6.33694 7.39579 6.34172 7.43018C6.34968 7.48752 6.33685 7.54751 6.3112 7.66751L6.30203 7.71038L6.30203 7.71039C6.25602 7.92557 6.23302 8.03317 6.26174 8.08606C6.28753 8.13356 6.33504 8.16397 6.38752 8.16657C6.44595 8.16947 6.52828 8.09985 6.69294 7.96061L6.69294 7.96061C6.80142 7.86888 6.85566 7.82301 6.91588 7.80509C6.97091 7.78871 7.02926 7.78871 7.08429 7.80509C7.1445 7.82301 7.19874 7.86888 7.30722 7.96061L7.30723 7.96061C7.47188 8.09985 7.55421 8.16947 7.61264 8.16657C7.66512 8.16397 7.71263 8.13356 7.73843 8.08606C7.76714 8.03317 7.74414 7.92557 7.69813 7.71039L7.69813 7.71038L7.68897 7.66751L7.68897 7.6675C7.66331 7.54751 7.65049 7.48752 7.65845 7.43018C7.66322 7.39579 7.67341 7.36245 7.68861 7.33149C7.71395 7.27987 7.75775 7.23852 7.84536 7.1558L7.89739 7.10667C8.08478 6.92975 8.17848 6.84128 8.16557 6.75679C8.1629 6.73929 8.15742 6.72238 8.14936 6.70676C8.11044 6.63135 7.98299 6.6195 7.72809 6.59581C7.57752 6.58182 7.50223 6.57482 7.44192 6.5371C7.425 6.52652 7.40911 6.51426 7.39448 6.50049C7.3423 6.45142 7.31441 6.37928 7.25864 6.23499L7.25864 6.23498C7.16056 5.98125 7.11153 5.85438 7.03186 5.8368C7.01091 5.83217 6.98926 5.83217 6.96831 5.8368Z" fill="#F9E370"/>
</svg>
