<svg width="1264" height="103" viewBox="0 0 1264 103" fill="none" xmlns="http://www.w3.org/2000/svg">
<path d="M208.605 74.2446C117.599 122.799 40.0495 99.6779 6.57937 78.7407C4.45978 77.4147 3.39999 76.7518 2.40506 75.5902C1.59946 74.6496 0.827317 73.2558 0.457157 72.074C0 70.6145 0 69.1617 0 66.2561V16C0 10.3995 0 7.59923 1.08993 5.46011C2.04867 3.57849 3.57847 2.04868 5.46009 1.08995C7.59921 1.52588e-05 10.3995 1.52588e-05 16 1.52588e-05H1248C1253.6 1.52588e-05 1256.4 1.52588e-05 1258.54 1.08995C1260.42 2.04868 1261.95 3.57849 1262.91 5.46011C1264 7.59923 1264 10.3995 1264 16V30.8622C1264 44.8939 1264 51.9097 1261.82 54.6433C1259.76 57.2349 1257.33 58.4085 1254.02 58.4159C1250.53 58.4237 1244.59 53.7178 1232.71 44.3059L1232.71 44.3049C1193.3 13.0824 1135.58 -11.7232 1088.57 32.2803C1026.49 90.3847 959.245 39.4591 916.512 32.2803C842.854 19.9062 806.306 30.1283 772.569 51.6484C730.399 78.5486 678.107 90.3847 626.377 94.1507C585.589 97.1202 515.232 67.9301 483.786 52.323C483.267 52.0653 483.007 51.9364 482.739 51.8222C482.503 51.7219 482.255 51.6274 482.012 51.5457C481.735 51.4527 481.487 51.385 480.991 51.2496C429.475 37.1996 305.301 22.6542 208.605 74.2446Z" fill="#83E9FF" fill-opacity="0.1"/>
</svg>
