<svg width="20" height="20" viewBox="0 0 20 20" fill="none" xmlns="http://www.w3.org/2000/svg">
<g opacity="0.8">
<path d="M3.33325 6.86886C3.33325 5.43053 3.33325 4.71136 3.68598 4.19909C3.82428 3.99823 3.99816 3.82436 4.19902 3.68606C4.71129 3.33333 5.43045 3.33333 6.86879 3.33333V3.33333C7.49535 3.33333 7.80863 3.33333 8.09873 3.42354C8.21493 3.45968 8.32758 3.50634 8.43529 3.56295C8.70421 3.70429 8.92574 3.92581 9.36879 4.36886L9.66168 4.66175C10.2397 5.23982 10.5288 5.52885 10.8963 5.68109C11.2639 5.83333 11.6726 5.83333 12.4901 5.83333H12.6666C14.5522 5.83333 15.495 5.83333 16.0808 6.41911C16.6666 7.0049 16.6666 7.94771 16.6666 9.83333V11.8333C16.6666 13.7189 16.6666 14.6618 16.0808 15.2475C15.495 15.8333 14.5522 15.8333 12.6666 15.8333H7.33325C5.44763 15.8333 4.50482 15.8333 3.91904 15.2475C3.33325 14.6618 3.33325 13.7189 3.33325 11.8333V6.86886Z" stroke="white" stroke-width="2"/>
<path d="M4.16675 9.16667H15.8334" stroke="#83E9FF" stroke-width="2" stroke-miterlimit="1.41421"/>
</g>
</svg>
